<svg width="429" height="280" viewBox="0 0 429 280" fill="none" xmlns="http://www.w3.org/2000/svg">
<g clip-path="url(#clip0_1_1690)">
<rect width="356" height="206" rx="18" transform="matrix(0.965926 0.258819 -0.41056 0.911834 85 0)" fill="#2162E3"/>
<g opacity="0.3">
<path d="M515.386 374.162C437.217 544.031 207.559 654.501 27.6117 606.011C-152.335 557.52 -294.338 348.012 -168.831 190.827C-43.3252 33.642 132.375 -74.8084 318.943 -41.0214C505.51 -7.23447 593.554 204.293 515.386 374.162Z" stroke="url(#paint0_linear_1_1690)" stroke-width="0.83106" stroke-linecap="round"/>
<path d="M496.911 362.76C426.201 516.84 217.793 616.937 54.6077 572.995C-108.577 529.053 -231.747 340.543 -123.523 196.515C-15.2988 52.4871 150.349 -46.0104 318.781 -13.7204C487.212 18.5696 567.621 208.68 496.911 362.76Z" stroke="url(#paint1_linear_1_1690)" stroke-width="0.83106" stroke-linecap="round"/>
<path d="M471.727 352.786C408.329 491.037 221.306 580.826 74.8942 541.408C-71.5179 501.99 -180.635 333.225 -84.9239 203.632C10.787 74.0386 160.978 -14.372 311.909 15.0092C462.84 44.3904 535.125 214.535 471.727 352.786Z" stroke="url(#paint2_linear_1_1690)" stroke-width="0.83106" stroke-linecap="round"/>
<path d="M443.86 343.383C387.713 465.79 222.132 545.296 92.4974 510.393C-37.1373 475.489 -134.18 325.949 -49.0082 211.32C36.1635 96.6905 168.66 18.4223 302.354 44.3103C436.048 70.1983 500.007 220.977 443.86 343.383Z" stroke="url(#paint3_linear_1_1690)" stroke-width="0.83106" stroke-linecap="round"/>
<path d="M414.652 334.267C365.724 440.82 221.614 510.057 108.759 479.663C-4.09568 449.269 -90.0863 318.686 -14.4337 219.294C61.2189 119.901 174.866 51.8043 291.458 73.8971C408.051 95.9898 463.579 227.713 414.652 334.267Z" stroke="url(#paint4_linear_1_1690)" stroke-width="0.83106" stroke-linecap="round"/>
<path d="M384.678 325.313C342.952 416.008 220.33 474.984 124.256 449.097C28.1823 423.209 -47.3594 311.425 19.3757 227.431C86.1109 143.437 180.226 85.5278 279.797 103.647C379.369 121.767 426.404 234.618 384.678 325.313Z" stroke="url(#paint5_linear_1_1690)" stroke-width="0.83106" stroke-linecap="round"/>
<path d="M354.223 316.462C319.686 391.295 218.564 440.015 139.271 418.632C59.9792 397.249 -5.50178 304.162 52.7033 235.67C110.908 167.178 185.052 119.468 267.655 133.499C350.257 147.531 388.759 241.628 354.223 316.462Z" stroke="url(#paint6_linear_1_1690)" stroke-width="0.83106" stroke-linecap="round"/>
<path d="M323.449 307.678C296.094 366.648 216.478 405.116 153.968 388.236C91.4581 371.356 35.7714 296.895 85.7122 243.977C135.653 191.059 189.525 153.555 255.193 163.42C320.861 173.284 350.804 248.708 323.449 307.678Z" stroke="url(#paint7_linear_1_1690)" stroke-width="0.83106" stroke-linecap="round"/>
<path d="M292.453 298.943C272.273 342.048 214.169 370.265 168.443 357.887C122.716 345.509 76.6316 289.626 118.499 252.332C160.367 215.038 193.75 187.746 242.51 193.387C291.27 199.029 312.633 255.838 292.453 298.943Z" stroke="url(#paint8_linear_1_1690)" stroke-width="0.83106" stroke-linecap="round"/>
<path d="M261.294 290.241C248.285 317.48 211.698 335.449 182.754 327.573C153.81 319.696 117.186 282.352 151.123 260.721C185.061 239.09 197.793 222.014 229.663 223.39C261.534 224.766 274.303 263.003 261.294 290.241Z" stroke="url(#paint9_linear_1_1690)" stroke-width="0.83106" stroke-linecap="round"/>
</g>
<g filter="url(#filter0_f_1_1690)">
<path d="M462.829 197.414C443.926 239.398 365.956 183.5 335.484 248.481C305.011 313.462 285.886 114.435 181.151 98.4221C115.256 88.3475 277.708 35.4655 349.603 59.7686C422.764 84.4994 481.733 155.431 462.829 197.414Z" fill="url(#paint10_linear_1_1690)"/>
</g>
<g filter="url(#filter1_f_1_1690)">
<path d="M142.237 199.8C115.253 260.172 257.974 315.765 195.07 309.747C-119.34 279.669 -39.1238 129.805 124.605 74.0127C185.02 45.3511 251.57 43.1734 251.57 43.1734C251.57 43.1734 179.247 116.997 142.237 199.8Z" fill="url(#paint11_linear_1_1690)"/>
</g>
<path d="M77.568 110.862L68.6513 130.666L65.6844 129.871L73.4928 112.529L68.7577 111.26L69.8659 108.799L77.568 110.862ZM89.0931 133.385L87.9848 135.846L72.9104 131.807L73.7766 129.883L85.8208 124.392C87.2843 123.727 88.3487 123.104 89.0141 122.521C89.6879 121.92 90.1819 121.27 90.4961 120.572C90.9632 119.535 90.9345 118.629 90.4101 117.854C89.9141 117.066 88.9469 116.479 87.5084 116.094C85.1908 115.473 83.0799 115.71 81.1758 116.807L79.8895 114.591C81.1332 113.868 82.5333 113.419 84.0897 113.244C85.6661 113.074 87.2735 113.209 88.9118 113.648C91.1095 114.237 92.6327 115.205 93.4813 116.553C94.3383 117.882 94.3847 119.395 93.6204 121.092C93.1449 122.148 92.455 123.084 91.5509 123.898C90.6468 124.713 89.2537 125.544 87.3716 126.393L78.3342 130.502L89.0931 133.385ZM103.652 127.173C105.625 127.913 106.922 128.936 107.542 130.244C108.171 131.533 108.133 132.96 107.428 134.525C106.919 135.657 106.156 136.604 105.141 137.368C104.134 138.113 102.908 138.598 101.463 138.824C100.046 139.036 98.4786 138.912 96.7603 138.451C95.2619 138.05 93.9168 137.457 92.725 136.673C91.5418 135.869 90.6804 134.973 90.141 133.983L92.5259 132.117C92.9564 132.951 93.642 133.716 94.5825 134.412C95.5315 135.089 96.6353 135.596 97.894 135.933C99.4524 136.351 100.801 136.364 101.941 135.971C103.1 135.585 103.926 134.844 104.418 133.75C104.911 132.656 104.864 131.693 104.276 130.859C103.689 130.025 102.526 129.375 100.788 128.91L99.1096 128.46L100.001 126.48L108.027 121.782L97.9277 119.076L99.0359 116.615L112.882 120.325L112.015 122.248L103.652 127.173ZM128.041 141.126L124.055 140.058L121.864 144.924L118.957 144.145L121.148 139.279L109.49 136.156L110.382 134.175L126.945 124.093L130.182 124.96L114.272 134.71L122.334 136.87L124.27 132.57L127.087 133.325L125.151 137.625L129.137 138.693L128.041 141.126ZM148.898 139.296C150.871 140.036 152.168 141.06 152.788 142.368C153.417 143.656 153.379 145.083 152.674 146.649C152.165 147.78 151.402 148.728 150.387 149.492C149.38 150.236 148.154 150.721 146.709 150.947C145.292 151.159 143.725 151.035 142.007 150.575C140.508 150.173 139.163 149.581 137.971 148.796C136.788 147.993 135.927 147.096 135.387 146.106L137.772 144.241C138.203 145.075 138.888 145.84 139.829 146.536C140.778 147.213 141.882 147.72 143.14 148.057C144.699 148.475 146.048 148.487 147.187 148.095C148.346 147.708 149.172 146.968 149.665 145.874C150.157 144.78 150.11 143.816 149.522 142.983C148.935 142.149 147.772 141.499 146.034 141.033L144.356 140.584L145.247 138.603L153.273 133.906L143.174 131.2L144.282 128.738L158.128 132.448L157.262 134.372L148.898 139.296ZM168.552 154.676L167.444 157.137L152.369 153.098L153.236 151.174L165.28 145.683C166.743 145.018 167.808 144.395 168.473 143.812C169.147 143.211 169.641 142.561 169.955 141.863C170.422 140.826 170.393 139.92 169.869 139.145C169.373 138.357 168.406 137.77 166.967 137.385C164.65 136.764 162.539 137.001 160.635 138.098L159.348 135.882C160.592 135.159 161.992 134.71 163.549 134.535C165.125 134.365 166.732 134.5 168.371 134.939C170.568 135.528 172.092 136.496 172.94 137.844C173.797 139.173 173.844 140.686 173.079 142.383C172.604 143.439 171.914 144.375 171.01 145.189C170.106 146.004 168.713 146.835 166.831 147.684L157.793 151.793L168.552 154.676ZM189.794 157.673L185.808 156.605L183.617 161.471L180.71 160.692L182.901 155.826L171.243 152.702L172.135 150.722L188.698 140.639L191.934 141.507L176.025 151.257L184.086 153.417L186.023 149.117L188.84 149.872L186.903 154.172L190.889 155.24L189.794 157.673ZM202.252 153.592C204.225 154.332 205.521 155.356 206.141 156.663C206.77 157.952 206.732 159.379 206.027 160.945C205.518 162.076 204.755 163.024 203.74 163.787C202.733 164.532 201.507 165.017 200.062 165.243C198.645 165.455 197.078 165.331 195.36 164.871C193.861 164.469 192.516 163.876 191.324 163.092C190.141 162.289 189.28 161.392 188.74 160.402L191.125 158.537C191.556 159.371 192.241 160.136 193.182 160.832C194.131 161.509 195.235 162.016 196.493 162.353C198.052 162.771 199.401 162.783 200.54 162.391C201.699 162.004 202.525 161.264 203.018 160.17C203.51 159.076 203.463 158.112 202.876 157.278C202.288 156.445 201.125 155.795 199.387 155.329L197.709 154.88L198.601 152.899L206.627 148.202L196.527 145.496L197.635 143.034L211.481 146.744L210.615 148.668L202.252 153.592ZM229.667 151.617L220.75 171.421L217.783 170.626L225.592 153.283L220.856 152.015L221.965 149.553L229.667 151.617ZM236.695 162.346C239.692 163.149 241.648 164.275 242.563 165.725C243.505 167.161 243.561 168.804 242.729 170.652C242.202 171.821 241.427 172.797 240.403 173.58C239.407 174.348 238.187 174.846 236.742 175.072C235.326 175.284 233.748 175.157 232.01 174.691C230.531 174.295 229.196 173.705 228.005 172.921C226.821 172.117 225.95 171.218 225.391 170.223L227.776 168.357C228.206 169.191 228.892 169.956 229.832 170.652C230.781 171.329 231.875 171.833 233.114 172.165C234.692 172.588 236.051 172.604 237.19 172.211C238.358 171.806 239.188 171.056 239.681 169.962C240.216 168.774 240.14 167.749 239.452 166.889C238.774 166.01 237.275 165.259 234.958 164.638L230.193 163.362L235.964 153.304L247.802 156.476L246.693 158.938L237.373 156.44L234.358 161.719L236.695 162.346ZM266.368 161.451L265.502 163.375L248.97 178.982L245.793 178.131L261.903 163.013L252.313 160.443L250.721 163.98L247.844 163.209L250.544 157.211L266.368 161.451ZM275.791 163.976L266.874 183.78L263.907 182.985L271.716 165.642L266.981 164.374L268.089 161.912L275.791 163.976ZM292.715 177.832C294.688 178.572 295.984 179.595 296.605 180.903C297.233 182.192 297.195 183.619 296.491 185.184C295.981 186.316 295.219 187.263 294.203 188.027C293.196 188.772 291.97 189.257 290.525 189.483C289.108 189.695 287.541 189.571 285.823 189.11C284.324 188.709 282.979 188.116 281.788 187.332C280.604 186.529 279.743 185.632 279.204 184.642L281.588 182.776C282.019 183.61 282.705 184.375 283.645 185.071C284.594 185.748 285.698 186.255 286.957 186.593C288.515 187.01 289.864 187.023 291.003 186.631C292.163 186.244 292.988 185.503 293.481 184.409C293.974 183.316 293.926 182.352 293.339 181.518C292.751 180.684 291.589 180.035 289.85 179.569L288.172 179.119L289.064 177.139L297.09 172.441L286.99 169.735L288.098 167.274L301.944 170.984L301.078 172.907L292.715 177.832ZM312.082 173.7L303.165 193.504L300.198 192.709L308.006 175.366L303.271 174.098L304.38 171.636L312.082 173.7ZM328.196 194.758L324.21 193.69L322.019 198.556L319.112 197.777L321.303 192.911L309.645 189.787L310.537 187.806L327.1 177.724L330.336 178.591L314.427 188.342L322.488 190.502L324.425 186.201L327.242 186.956L325.305 191.256L329.291 192.325L328.196 194.758ZM339.07 189.777C342.067 190.58 344.023 191.706 344.937 193.156C345.88 194.592 345.936 196.235 345.103 198.083C344.577 199.252 343.802 200.228 342.778 201.011C341.782 201.78 340.562 202.277 339.117 202.503C337.7 202.715 336.123 202.588 334.385 202.123C332.906 201.726 331.571 201.136 330.379 200.352C329.196 199.549 328.325 198.649 327.765 197.654L330.15 195.788C330.581 196.622 331.266 197.387 332.207 198.083C333.156 198.76 334.25 199.265 335.488 199.597C337.067 200.02 338.426 200.035 339.565 199.643C340.733 199.237 341.563 198.487 342.056 197.393C342.591 196.205 342.514 195.181 341.827 194.32C341.148 193.441 339.65 192.691 337.333 192.07L332.567 190.793L338.338 180.736L350.176 183.907L349.068 186.369L339.748 183.871L336.733 189.151L339.07 189.777Z" fill="white"/>
<path d="M45.3346 167.36C44.93 167.252 44.5898 167.072 44.314 166.822C44.0409 166.565 43.8639 166.263 43.783 165.915L44.6201 165.446C44.766 166.049 45.1215 166.427 45.6867 166.578C46.0656 166.68 46.4005 166.647 46.6914 166.48C46.9887 166.316 47.233 166.021 47.424 165.597L49.0331 162.023L46.596 161.37L46.9522 160.579L50.343 161.487L48.3982 165.807C48.0815 166.51 47.6629 166.992 47.1422 167.253C46.6307 167.51 46.0281 167.546 45.3346 167.36ZM51.1774 168.905C50.67 168.769 50.2618 168.541 49.9528 168.22C49.6437 167.9 49.4569 167.524 49.3922 167.092C49.3367 166.656 49.4153 166.201 49.6282 165.729C49.8412 165.256 50.1432 164.864 50.5345 164.555C50.9349 164.241 51.3839 164.035 51.8812 163.937C52.3814 163.834 52.8851 163.85 53.3924 163.986C53.8998 164.122 54.3047 164.349 54.6074 164.668C54.9191 164.982 55.1028 165.358 55.1583 165.794C55.223 166.226 55.1489 166.678 54.936 167.151C54.7231 167.624 54.4164 168.017 54.016 168.331C53.6247 168.64 53.179 168.847 52.6789 168.951C52.1852 169.056 51.6847 169.041 51.1774 168.905ZM51.5213 168.141C51.8488 168.229 52.1724 168.238 52.492 168.167C52.8209 168.092 53.1164 167.947 53.3788 167.732C53.6439 167.511 53.8515 167.234 54.0016 166.9C54.1517 166.567 54.2103 166.253 54.1772 165.959C54.1469 165.659 54.0314 165.404 53.8309 165.194C53.6368 164.985 53.376 164.837 53.0485 164.75C52.721 164.662 52.3942 164.652 52.0681 164.721C51.7484 164.792 51.4529 164.937 51.1814 165.156C50.919 165.371 50.7128 165.645 50.5626 165.979C50.4125 166.312 50.3526 166.629 50.3829 166.929C50.4224 167.225 50.5379 167.48 50.7292 167.695C50.9297 167.905 51.1938 168.054 51.5213 168.141ZM59.7575 165.691C60.4061 165.865 60.8394 166.182 61.0572 166.641C61.2842 167.096 61.2435 167.666 60.935 168.351L59.6863 171.124L58.7615 170.876L59.9652 168.203C60.1754 167.736 60.2149 167.353 60.0838 167.052C59.9526 166.752 59.6655 166.543 59.2224 166.424C58.7215 166.29 58.2637 166.324 57.8492 166.525C57.4374 166.72 57.1154 167.076 56.8834 167.591L55.7657 170.074L54.8409 169.826L57.8789 163.078L58.8037 163.326L57.6286 165.936C57.925 165.757 58.256 165.646 58.6215 165.601C58.9935 165.558 59.3722 165.588 59.7575 165.691ZM66.0253 167.371C66.6739 167.544 67.1071 167.861 67.325 168.32C67.552 168.775 67.5113 169.345 67.2028 170.03L65.954 172.804L65.0293 172.556L66.233 169.882C66.4432 169.415 66.4827 169.032 66.3516 168.732C66.2204 168.432 65.9333 168.222 65.4902 168.104C64.9892 167.969 64.5315 168.003 64.117 168.205C63.7051 168.4 63.3832 168.755 63.1512 169.271L62.0334 171.753L61.1087 171.505L63.2787 166.686L64.1649 166.923L63.8374 167.651C64.1355 167.452 64.472 167.328 64.8467 167.279C65.2279 167.232 65.6207 167.262 66.0253 167.371ZM72.6754 167.471L75.5171 168.233C76.2299 168.424 76.8024 168.726 77.2346 169.141C77.6668 169.556 77.9246 170.046 78.0081 170.612C78.1007 171.174 78.0064 171.767 77.7253 172.391C77.4441 173.015 77.0403 173.529 76.5136 173.931C75.9962 174.329 75.4012 174.588 74.7289 174.706C74.0565 174.825 73.3639 174.789 72.651 174.598L69.8093 173.837L72.6754 167.471ZM72.9494 173.791C73.4953 173.938 74.0188 173.966 74.5199 173.876C75.0274 173.788 75.474 173.595 75.8598 173.297C76.2484 172.994 76.5491 172.606 76.762 172.133C76.9749 171.66 77.0495 171.215 76.9858 170.797C76.9248 170.373 76.7306 170.005 76.4033 169.693C76.0823 169.383 75.6489 169.154 75.1031 169.008L73.2825 168.52L71.1288 173.304L72.9494 173.791ZM79.506 176.496C78.9987 176.36 78.5905 176.132 78.2814 175.811C77.9724 175.491 77.7855 175.114 77.7208 174.683C77.6653 174.247 77.744 173.792 77.9569 173.319C78.1698 172.846 78.4719 172.455 78.8632 172.146C79.2636 171.832 79.7125 171.626 80.2099 171.528C80.71 171.424 81.2137 171.44 81.7211 171.576C82.2284 171.712 82.6334 171.94 82.936 172.259C83.2478 172.573 83.4314 172.948 83.487 173.384C83.5517 173.816 83.4775 174.269 83.2646 174.741C83.0517 175.214 82.7451 175.608 82.3446 175.922C81.9534 176.231 81.5077 176.438 81.0075 176.542C80.5138 176.647 80.0133 176.632 79.506 176.496ZM79.8499 175.732C80.1774 175.82 80.501 175.828 80.8207 175.758C81.1495 175.683 81.4451 175.538 81.7074 175.323C81.9725 175.102 82.1801 174.824 82.3302 174.491C82.4804 174.158 82.5389 173.844 82.5058 173.55C82.4755 173.249 82.3601 172.994 82.1596 172.784C81.9655 172.576 81.7047 172.428 81.3771 172.34C81.0496 172.252 80.7228 172.243 80.3967 172.312C80.0771 172.382 79.7815 172.527 79.51 172.747C79.2477 172.962 79.0414 173.236 78.8913 173.57C78.7412 173.903 78.6813 174.22 78.7116 174.52C78.7511 174.816 78.8665 175.071 79.0579 175.285C79.2584 175.495 79.5224 175.644 79.8499 175.732ZM88.8564 176.27C88.8264 176.337 88.7804 176.423 88.7184 176.529L84.5763 175.419C84.443 175.859 84.4847 176.254 84.7012 176.604C84.927 176.95 85.2903 177.19 85.7912 177.324C86.4013 177.487 86.9799 177.425 87.5271 177.137L87.7837 177.838C87.4379 178.03 87.0616 178.147 86.6547 178.187C86.2543 178.229 85.8422 178.194 85.4183 178.08C84.8789 177.936 84.4469 177.704 84.1223 177.386C83.8004 177.062 83.6084 176.681 83.5465 176.244C83.491 175.808 83.5696 175.353 83.7826 174.88C83.9927 174.413 84.2916 174.021 84.6792 173.704C85.0732 173.388 85.5093 173.179 85.9874 173.076C86.4747 172.969 86.9623 172.981 87.4504 173.112C87.9385 173.242 88.3242 173.465 88.6075 173.778C88.9 174.088 89.0676 174.459 89.1103 174.891C89.1594 175.326 89.0748 175.785 88.8564 176.27ZM87.1187 173.848C86.6756 173.729 86.2458 173.757 85.8294 173.931C85.4193 174.106 85.0958 174.393 84.8588 174.792L88.134 175.669C88.2655 175.249 88.2377 174.871 88.0505 174.536C87.8724 174.196 87.5619 173.967 87.1187 173.848Z" fill="white"/>
<path d="M306.522 237.345C305.989 237.202 305.571 236.948 305.268 236.581C304.974 236.211 304.819 235.748 304.803 235.193C304.786 234.638 304.929 234.025 305.232 233.352C305.535 232.679 305.916 232.129 306.375 231.701C306.834 231.274 307.326 230.988 307.852 230.843C308.386 230.695 308.92 230.692 309.453 230.834C309.98 230.975 310.39 231.231 310.684 231.602C310.986 231.969 311.146 232.429 311.163 232.984C311.179 233.539 311.036 234.152 310.733 234.825C310.43 235.498 310.049 236.048 309.59 236.476C309.132 236.903 308.635 237.191 308.1 237.34C307.574 237.485 307.048 237.486 306.522 237.345ZM306.886 236.536C307.425 236.68 307.95 236.587 308.459 236.254C308.975 235.924 309.412 235.361 309.77 234.567C310.127 233.773 310.236 233.123 310.097 232.617C309.964 232.113 309.628 231.788 309.089 231.644C308.543 231.497 308.012 231.59 307.496 231.92C306.987 232.252 306.553 232.816 306.196 233.61C305.838 234.404 305.726 235.053 305.858 235.557C305.998 236.064 306.34 236.39 306.886 236.536ZM313.586 234.866C314.549 235.124 315.178 235.487 315.472 235.953C315.775 236.414 315.793 236.942 315.525 237.536C315.356 237.912 315.107 238.226 314.777 238.477C314.458 238.724 314.065 238.884 313.601 238.957C313.145 239.025 312.638 238.984 312.08 238.835C311.605 238.707 311.175 238.517 310.792 238.265C310.412 238.007 310.132 237.718 309.952 237.398L310.719 236.799C310.857 237.067 311.077 237.313 311.38 237.536C311.685 237.754 312.036 237.916 312.435 238.023C312.942 238.159 313.379 238.164 313.745 238.037C314.12 237.907 314.387 237.666 314.545 237.314C314.717 236.933 314.693 236.603 314.472 236.327C314.254 236.044 313.772 235.803 313.027 235.603L311.496 235.193L313.351 231.96L317.156 232.98L316.799 233.771L313.804 232.968L312.834 234.665L313.586 234.866ZM321.072 232.582L321.91 232.807L314.874 240.521L314.036 240.296L321.072 232.582ZM323.371 240.892L323.015 241.683L318.17 240.385L318.448 239.766L322.319 238.001C322.79 237.788 323.132 237.587 323.346 237.4C323.562 237.207 323.721 236.998 323.822 236.774C323.972 236.44 323.963 236.149 323.794 235.9C323.635 235.647 323.324 235.458 322.862 235.334C322.117 235.134 321.438 235.211 320.826 235.563L320.413 234.851C320.813 234.619 321.263 234.474 321.763 234.418C322.27 234.364 322.786 234.407 323.313 234.548C324.019 234.737 324.509 235.048 324.782 235.482C325.057 235.909 325.072 236.395 324.826 236.941C324.673 237.28 324.452 237.581 324.161 237.843C323.87 238.104 323.423 238.372 322.818 238.644L319.913 239.965L323.371 240.892ZM327.168 238.506C328.131 238.764 328.76 239.126 329.054 239.592C329.357 240.054 329.375 240.581 329.107 241.176C328.938 241.551 328.689 241.865 328.36 242.117C328.04 242.364 327.648 242.524 327.183 242.596C326.728 242.664 326.221 242.624 325.662 242.474C325.187 242.347 324.758 242.157 324.375 241.905C323.994 241.647 323.714 241.358 323.535 241.038L324.301 240.438C324.439 240.706 324.66 240.952 324.962 241.176C325.267 241.393 325.619 241.555 326.017 241.662C326.524 241.798 326.961 241.803 327.327 241.677C327.703 241.546 327.969 241.305 328.128 240.954C328.3 240.572 328.275 240.243 328.054 239.966C327.836 239.683 327.355 239.442 326.61 239.243L325.078 238.832L326.933 235.6L330.738 236.619L330.382 237.41L327.386 236.608L326.417 238.304L327.168 238.506Z" fill="white"/>
<path d="M96.5678 48.8949C98.3545 44.9267 103.211 42.623 107.414 43.7493L111.22 44.769L106.367 55.5465L94.9503 52.4874L96.5678 48.8949Z" fill="white"/>
<path d="M107.938 37.8508L119.354 40.9099L117.737 44.5024C115.95 48.4705 111.094 50.7742 106.89 49.6479L103.085 48.6282L107.938 37.8508Z" fill="#82ABFF"/>
<path d="M131.563 47.2141C132.486 47.4615 133.223 47.8201 133.774 48.2896C134.334 48.7619 134.677 49.3153 134.8 49.9497C134.924 50.584 134.82 51.27 134.488 52.0077C134.16 52.7358 133.691 53.3239 133.079 53.772C132.472 54.2106 131.759 54.4812 130.94 54.5837C130.13 54.6889 129.264 54.6178 128.341 54.3703L125.935 53.7259L124.628 56.6286L122.65 56.0983L127.179 46.0394L131.563 47.2141ZM128.961 52.7651C129.824 52.9963 130.556 52.9992 131.158 52.774C131.759 52.5488 132.205 52.1152 132.494 51.4734C132.783 50.8315 132.782 50.2783 132.49 49.8138C132.199 49.3493 131.622 49.0014 130.76 48.7703L128.446 48.1503L126.647 52.1452L128.961 52.7651ZM139.432 51.8991C140.629 52.22 141.419 52.7378 141.803 53.4524C142.201 54.1602 142.154 55.0601 141.662 56.1523L139.637 60.65L137.841 60.1687L138.261 59.2347C137.877 59.5075 137.425 59.6764 136.907 59.7415C136.403 59.7997 135.847 59.7472 135.238 59.5841C134.629 59.4209 134.139 59.1824 133.769 58.8684C133.403 58.5449 133.171 58.1767 133.072 57.7638C132.988 57.3441 133.045 56.9139 133.244 56.4732C133.554 55.7835 134.071 55.3047 134.795 55.0369C135.532 54.7622 136.485 54.7812 137.652 55.0939L139.753 55.6568L139.804 55.5418C140.046 55.0053 140.059 54.5472 139.843 54.1673C139.638 53.7902 139.2 53.5119 138.53 53.3324C138.074 53.2101 137.592 53.1561 137.085 53.1706C136.588 53.1878 136.134 53.2753 135.721 53.4333L135.564 51.9257C136.129 51.7334 136.747 51.636 137.419 51.6336C138.091 51.6311 138.762 51.7197 139.432 51.8991ZM136.222 58.3825C136.699 58.5103 137.166 58.5225 137.622 58.4192C138.092 58.3091 138.49 58.0828 138.814 57.7404L139.216 56.8495L137.252 56.3233C136.156 56.0296 135.455 56.2229 135.149 56.9031C135.002 57.2288 135.022 57.5241 135.21 57.7892C135.398 58.0542 135.735 58.252 136.222 58.3825ZM152.54 55.5081L145.001 62.7798C144.27 63.5181 143.576 63.9869 142.918 64.1862C142.255 64.3951 141.563 64.4031 140.843 64.21C140.437 64.1012 140.064 63.9316 139.724 63.701C139.385 63.4704 139.137 63.2109 138.983 62.9226L140.339 61.8045C140.449 62.0163 140.604 62.2027 140.804 62.3638C141.015 62.5276 141.247 62.6435 141.5 62.7114C141.835 62.8012 142.146 62.7932 142.432 62.6874C142.729 62.5844 143.055 62.3657 143.41 62.0315L143.683 61.7664L143.604 53.1138L145.583 53.644L145.585 60.0054L150.713 55.0186L152.54 55.5081ZM155.533 55.4083L152.001 54.462L152.713 52.8813L161.755 55.3041L161.043 56.8848L157.512 55.9385L153.694 64.4168L151.715 63.8865L155.533 55.4083ZM160.847 66.4461C160.025 66.2259 159.36 65.8597 158.851 65.3477C158.343 64.8356 158.034 64.2323 157.926 63.5378C157.833 62.8363 157.956 62.1072 158.297 61.3504C158.638 60.5936 159.125 59.9671 159.757 59.4711C160.4 58.9777 161.127 58.6518 161.938 58.4932C162.748 58.3347 163.565 58.3655 164.387 58.5858C165.219 58.8088 165.889 59.1763 166.398 59.6883C166.906 60.2004 167.21 60.8023 167.308 61.4942C167.416 62.1887 167.299 62.9144 166.959 63.6712C166.618 64.4281 166.124 65.0579 165.477 65.5609C164.844 66.0569 164.122 66.3842 163.312 66.5428C162.501 66.7013 161.68 66.6691 160.847 66.4461ZM161.54 64.9086C162.24 65.0962 162.918 65.0308 163.573 64.7125C164.228 64.3942 164.717 63.8758 165.041 63.1573C165.364 62.4388 165.397 61.798 165.138 61.235C164.88 60.672 164.401 60.2966 163.701 60.109C163 59.9214 162.323 59.9867 161.668 60.305C161.023 60.6261 160.539 61.1458 160.215 61.8643C159.892 62.5828 159.854 63.2222 160.102 63.7826C160.36 64.3456 160.839 64.7209 161.54 64.9086Z" fill="white"/>
<path d="M350.068 120.544L345.789 119.397L355.495 104.496L359.775 105.643L350.068 120.544ZM349.221 102.815L340.304 112.463L340.863 110.021L340.863 110.022L342.585 102.612C342.585 102.612 343.044 101.16 341.188 100.662L334.444 98.8551L334.245 99.0983C334.245 99.0983 336.124 100.059 337.918 102.083L335.527 116.648L339.986 117.842L353.826 104.049L349.221 102.815ZM375.849 127.451L379.778 128.504L383.385 111.968L379.944 111.046C378.356 110.621 377.445 111.681 377.445 111.681L364.554 124.425L369.015 125.62L370.952 123.54L376.392 124.997L375.849 127.451ZM373.627 120.665L378.507 115.423L377.141 121.607L373.627 120.665ZM370.23 112.653L372.351 109.463C372.351 109.463 370.773 108.277 368.808 107.75C366.684 107.181 361.244 106.712 359.313 111C357.497 115.035 363.393 116.671 362.439 118.79C361.485 120.91 356.346 119.107 355.196 117.301L352.981 120.638C352.981 120.638 354.495 122.032 357.414 122.814C360.335 123.596 365.387 123.34 367.148 119.43C368.976 115.369 363.174 113.391 363.969 111.625C364.765 109.86 368.83 111.203 370.23 112.653Z" fill="white"/>
<path d="M340.865 110.021L342.587 102.612C342.587 102.612 343.046 101.159 341.191 100.662L334.446 98.8546L334.247 99.0979C334.247 99.0979 337.202 100.605 339.234 103.83C341.178 106.912 340.865 110.021 340.865 110.021Z" fill="white"/>
</g>
<defs>
<filter id="filter0_f_1_1690" x="94.0715" y="-18.2313" width="443.999" height="351.384" filterUnits="userSpaceOnUse" color-interpolation-filters="sRGB">
<feFlood flood-opacity="0" result="BackgroundImageFix"/>
<feBlend mode="normal" in="SourceGraphic" in2="BackgroundImageFix" result="shape"/>
<feGaussianBlur stdDeviation="35.8383" result="effect1_foregroundBlur_1_1690"/>
</filter>
<filter id="filter1_f_1_1690" x="-122.025" y="-59.3687" width="476.138" height="472.106" filterUnits="userSpaceOnUse" color-interpolation-filters="sRGB">
<feFlood flood-opacity="0" result="BackgroundImageFix"/>
<feBlend mode="normal" in="SourceGraphic" in2="BackgroundImageFix" result="shape"/>
<feGaussianBlur stdDeviation="51.271" result="effect1_foregroundBlur_1_1690"/>
</filter>
<linearGradient id="paint0_linear_1_1690" x1="-29.9239" y1="-135.478" x2="614.268" y2="154.575" gradientUnits="userSpaceOnUse">
<stop stop-color="white"/>
<stop offset="1" stop-color="white"/>
</linearGradient>
<linearGradient id="paint1_linear_1_1690" x1="3.66202" y1="-98.8459" x2="586.584" y2="163.619" gradientUnits="userSpaceOnUse">
<stop stop-color="white"/>
<stop offset="1" stop-color="white"/>
</linearGradient>
<linearGradient id="paint2_linear_1_1690" x1="29.4764" y1="-61.2418" x2="552.184" y2="174.111" gradientUnits="userSpaceOnUse">
<stop stop-color="white"/>
<stop offset="1" stop-color="white"/>
</linearGradient>
<linearGradient id="paint3_linear_1_1690" x1="52.1949" y1="-23.2413" x2="515.097" y2="185.184" gradientUnits="userSpaceOnUse">
<stop stop-color="white"/>
<stop offset="1" stop-color="white"/>
</linearGradient>
<linearGradient id="paint4_linear_1_1690" x1="73.3539" y1="14.9519" x2="476.667" y2="196.546" gradientUnits="userSpaceOnUse">
<stop stop-color="white"/>
<stop offset="1" stop-color="white"/>
</linearGradient>
<linearGradient id="paint5_linear_1_1690" x1="93.5999" y1="53.2439" x2="437.472" y2="208.075" gradientUnits="userSpaceOnUse">
<stop stop-color="white"/>
<stop offset="1" stop-color="white"/>
</linearGradient>
<linearGradient id="paint6_linear_1_1690" x1="113.237" y1="91.5795" x2="397.795" y2="219.704" gradientUnits="userSpaceOnUse">
<stop stop-color="white"/>
<stop offset="1" stop-color="white"/>
</linearGradient>
<linearGradient id="paint7_linear_1_1690" x1="132.417" y1="129.914" x2="357.803" y2="231.396" gradientUnits="userSpaceOnUse">
<stop stop-color="white"/>
<stop offset="1" stop-color="white"/>
</linearGradient>
<linearGradient id="paint8_linear_1_1690" x1="151.193" y1="168.196" x2="317.597" y2="243.121" gradientUnits="userSpaceOnUse">
<stop stop-color="white"/>
<stop offset="1" stop-color="white"/>
</linearGradient>
<linearGradient id="paint9_linear_1_1690" x1="169.516" y1="206.326" x2="277.25" y2="254.834" gradientUnits="userSpaceOnUse">
<stop stop-color="white"/>
<stop offset="1" stop-color="white"/>
</linearGradient>
<linearGradient id="paint10_linear_1_1690" x1="178.388" y1="84.3128" x2="425.058" y2="256.847" gradientUnits="userSpaceOnUse">
<stop stop-color="#05138C"/>
<stop offset="0.38301" stop-color="#171237"/>
<stop offset="0.554889" stop-color="#1E1140"/>
<stop offset="1" stop-color="#440F6F"/>
</linearGradient>
<linearGradient id="paint11_linear_1_1690" x1="186.485" y1="78.107" x2="225.006" y2="477.097" gradientUnits="userSpaceOnUse">
<stop offset="0.237707" stop-color="#72AFE8"/>
<stop offset="0.940315" stop-color="#202C99"/>
</linearGradient>
<clipPath id="clip0_1_1690">
<rect width="356" height="206" rx="18" transform="matrix(0.965926 0.258819 -0.41056 0.911834 85 0)" fill="white"/>
</clipPath>
</defs>
</svg>
